<?xml version="1.0" encoding="iso-8859-1"?>
<!-- Uploaded to: SVG Repo, www.svgrepo.com, Generator: SVG Repo Mixer Tools -->
<svg height="800px" width="800px" version="1.1" id="Layer_1" xmlns="http://www.w3.org/2000/svg" xmlns:xlink="http://www.w3.org/1999/xlink" 
	 viewBox="0 0 480 480" xml:space="preserve">
<path style="fill:#E67F33;" d="M448,151.997H288l-16,32l-80,64L82.416,262.821C38.856,272.877,8,311.661,8,356.365v35.632h272l24-40
	h160v-104L448,151.997z"/>
<g>
	<path style="fill:#994C13;" d="M360,151.997h-72v-34.792c0-10.632,10.176-18.304,20.392-15.384L344,111.997L360,151.997z"/>
	<path style="fill:#994C13;" d="M302,352.661l-22,39.336H8v48c0,8.84,7.16,16,16,16h16v-24h32v24h32v-24h32v24h32v-24h32v24h32
		l16-24h40l17.52,24H336v-24h32v24h32v-24h32v24h24c8.84,0,16-7.16,16-16l-2-87.336H302z"/>
	<circle style="fill:#994C13;" cx="320" cy="199.997" r="16"/>
	<circle style="fill:#994C13;" cx="272" cy="263.997" r="16"/>
	<circle style="fill:#994C13;" cx="200" cy="295.997" r="16"/>
	<path style="fill:#994C13;" d="M443.744,111.997H432v40h16l9.464-15.768C463.856,125.565,456.176,111.997,443.744,111.997z"/>
</g>
<g>
	<polygon style="fill:#FCB641;" points="456,215.997 400,215.997 384,255.997 424,271.997 432,351.997 464,351.997 464,247.997 	"/>
	<polygon style="fill:#FCB641;" points="8,359.997 112,327.997 160,351.997 304,351.997 280,391.997 8,391.997 	"/>
</g>
<g>
	<path style="fill:#132C47;" d="M478,352.485c-0.08-3.64-2.632-6.528-6-7.416v-97.072c0-0.44-0.032-0.88-0.112-1.32l-15.512-93.096
		l7.944-13.24c4.504-7.512,4.624-16.552,0.304-24.168c-4.312-7.624-12.12-12.176-20.88-12.176H432c-4.416,0-8,3.584-8,8v32h-58.584
		l-13.992-34.976c-0.92-2.296-2.848-4.04-5.232-4.72l-35.608-10.168c-7.312-2.104-14.984-0.656-21.04,3.912
		c-6.064,4.576-9.544,11.56-9.544,19.16v32.896l-14.368,28.744l-76.896,61.52L80.624,255.029C33.152,265.981,0,307.653,0,356.365
		v3.632v80c0,13.232,10.768,24,24,24h16c4.416,0,8-3.584,8-8v-16h16v16c0,4.416,3.584,8,8,8h32c4.416,0,8-3.584,8-8v-16h16v16
		c0,4.416,3.584,8,8,8h32c4.416,0,8-3.584,8-8v-16h16v16c0,4.416,3.584,8,8,8h32c2.672,0,5.168-1.336,6.656-3.56l13.624-20.44
		h31.656l15.128,20.72c1.504,2.064,3.904,3.28,6.456,3.28H336c4.416,0,8-3.584,8-8v-16h16v16c0,4.416,3.584,8,8,8h32
		c4.416,0,8-3.584,8-8v-16h16v16c0,4.416,3.584,8,8,8h24c13.232,0,24-10.768,24-24.184L478,352.485z M16,365.909l95.288-29.32
		l45.136,22.568c1.104,0.552,2.336,0.84,3.576,0.84h128.736l-13.424,24H16V365.909z M431.96,271.197
		c-0.296-2.968-2.216-5.52-4.992-6.632L394.4,251.541l11.016-27.544h44.336L456,248.981v95.016h-16.76L431.96,271.197z M440,119.997
		h3.744c4.208,0,6.272,2.84,6.96,4.056s2.064,4.448-0.104,8.056l-7.128,11.888H440V119.997z M296,117.205
		c0-2.528,1.16-4.856,3.184-6.384c2.016-1.52,4.568-2,7.008-1.304l31.832,9.096l10.16,25.384H296V117.205z M200,287.997
		c4.408,0,8,3.592,8,8s-3.592,8-8,8s-8-3.592-8-8S195.592,287.997,200,287.997z M83.488,270.749l85.352-11.544
		c0.184,0.408,0.248,0.848,0.504,1.232l12.976,19.464c-3.888,4.264-6.32,9.88-6.32,16.096c0,13.232,10.768,24,24,24s24-10.768,24-24
		s-10.768-24-24-24c-1.192,0-2.336,0.184-3.48,0.352l-10.328-15.488l6.888-0.928c1.432-0.192,2.792-0.776,3.92-1.68l26.128-20.904
		l27.248,20.432c-1.48,3.104-2.376,6.544-2.376,10.216c0,13.232,10.768,24,24,24s24-10.768,24-24c0-13.232-10.768-24-24-24
		c-3.752,0-7.256,0.936-10.416,2.48c-0.28-0.28-0.456-0.632-0.784-0.88l-24.776-18.584l19.016-15.216
		c0.336,0.048,0.624,0.2,0.96,0.2h41.472c3.312,9.288,12.112,16,22.528,16c13.232,0,24-10.768,24-24s-10.768-24-24-24
		c-10.416,0-19.216,6.712-22.528,16H274.8l2.192-1.752c0.904-0.72,1.64-1.632,2.16-2.664l13.792-27.584H360h72h9.224l8,48H400
		c-3.272,0-6.208,1.992-7.432,5.024l-16,40c-1.64,4.104,0.352,8.76,4.456,10.4l35.496,14.192l6.64,66.384H304H161.888l-46.312-23.16
		c-1.84-0.912-3.96-1.104-5.928-0.488l-93.336,28.72C19.392,311.045,46.4,279.341,83.488,270.749z M264,263.997c0-4.408,3.592-8,8-8
		s8,3.592,8,8s-3.592,8-8,8S264,268.405,264,263.997z M312,199.997c0-4.408,3.592-8,8-8s8,3.592,8,8s-3.592,8-8,8
		S312,204.405,312,199.997z M456,447.997h-16v-16c0-4.416-3.584-8-8-8h-32c-4.416,0-8,3.584-8,8v16h-16v-16c0-4.416-3.584-8-8-8h-32
		c-4.416,0-8,3.584-8,8v16h-18.416l-15.128-20.72c-1.504-2.064-3.904-3.28-6.456-3.28h-40c-2.672,0-5.168,1.336-6.656,3.56
		l-13.624,20.44H208v-16c0-4.416-3.584-8-8-8h-32c-4.416,0-8,3.584-8,8v16h-16v-16c0-4.416-3.584-8-8-8h-32c-4.416,0-8,3.584-8,8v16
		H80v-16c0-4.416-3.584-8-8-8H40c-4.416,0-8,3.584-8,8v16h-8c-4.408,0-8-3.592-8-8v-40h264c0.712,0,1.416-0.096,2.08-0.28
		c0.224-0.064,0.424-0.184,0.64-0.264c0.432-0.16,0.872-0.304,1.264-0.536c0.232-0.136,0.424-0.32,0.64-0.48
		c0.344-0.248,0.696-0.48,1-0.784c0.2-0.2,0.352-0.448,0.528-0.672c0.232-0.288,0.496-0.888,0.696-1.208l21.28-35.776h154.048
		L464,439.661C464,444.077,460.408,447.997,456,447.997z"/>
	<path style="fill:#132C47;" d="M336,71.997c4.416,0,8-3.584,8-8c0-13.232,10.768-24,24-24s24,10.768,24,24c0,4.416,3.584,8,8,8h48
		c4.416,0,8-3.584,8-8s-3.584-8-8-8h-40.808c-3.712-18.232-19.872-32-39.192-32c-22.056,0-40,17.944-40,40
		C328,68.413,331.584,71.997,336,71.997z"/>
	<path style="fill:#132C47;" d="M8,191.997c2.256,0,4.496-0.952,6.08-2.792l90.864-106.008l36.096,30.088l-19.44,25.912
		c-2.656,3.536-1.936,8.552,1.6,11.2c1.44,1.08,3.128,1.6,4.792,1.6c2.432,0,4.832-1.104,6.408-3.2l23.888-31.848l66.72-81.552
		l49.784,42.672c3.352,2.88,8.408,2.488,11.28-0.864s2.488-8.408-0.864-11.28l-56-48c-1.64-1.4-3.768-2.064-5.912-1.896
		c-2.152,0.192-4.128,1.232-5.488,2.904l-66.888,81.752l-41.8-34.832c-3.36-2.808-8.344-2.392-11.192,0.936l-96,112
		c-2.872,3.352-2.488,8.408,0.864,11.28C4.304,191.365,6.152,191.997,8,191.997z"/>
	<path style="fill:#132C47;" d="M392,383.997h-64c-4.416,0-8,3.584-8,8s3.584,8,8,8h64c4.416,0,8-3.584,8-8
		S396.416,383.997,392,383.997z"/>
	<path style="fill:#132C47;" d="M440,383.997h-16c-4.416,0-8,3.584-8,8s3.584,8,8,8h16c4.416,0,8-3.584,8-8
		S444.416,383.997,440,383.997z"/>
</g>
</svg>