<?xml version="1.0" encoding="iso-8859-1"?>
<!-- Uploaded to: SVG Repo, www.svgrepo.com, Generator: SVG Repo Mixer Tools -->
<svg height="800px" width="800px" version="1.1" id="Layer_1" xmlns="http://www.w3.org/2000/svg" xmlns:xlink="http://www.w3.org/1999/xlink" 
	 viewBox="0 0 482.485 482.485" xml:space="preserve">
<path style="fill:#E67F33;" d="M273.931,28.779l11.08,22.456c59.032,119.648,59.032,259.952,0,379.6l-11.08,22.456
	c-5.96,12.088-18.272,19.744-31.752,19.744l0,0c-13.48,0-25.792-7.656-31.752-19.744l-11.08-22.456
	c-59.032-119.648-59.032-259.952,0-379.6l11.08-22.456c5.96-12.088,18.272-19.744,31.752-19.744l0,0
	C255.659,9.035,267.971,16.691,273.931,28.779z"/>
<g>
	<path style="fill:#FCB641;" d="M241.691,321.035L241.691,321.035c-22.088,0-40-17.912-40-40v-40h80v40
		C281.691,303.123,263.779,321.035,241.691,321.035z"/>
	<polygon style="fill:#FCB641;" points="177.691,369.035 241.691,369.035 201.691,425.035 	"/>
	<polygon style="fill:#FCB641;" points="305.691,369.035 241.691,369.035 281.691,425.035 	"/>
	<polygon style="fill:#FCB641;" points="177.691,105.035 241.691,105.035 201.691,49.035 	"/>
	<polygon style="fill:#FCB641;" points="305.691,105.035 241.691,105.035 281.691,49.035 	"/>
	<path style="fill:#FCB641;" d="M427.035,93.843l42.76-42.76c4.872-4.872,6.08-12.312,3-18.472l-7.544-15.088
		c-4.88-9.768-17.904-11.88-25.624-4.16l-46.528,46.528c-6.248,6.248-6.248,16.376,0,22.624l11.312,11.312
		C410.651,100.091,420.787,100.091,427.035,93.843z"/>
	<path style="fill:#FCB641;" d="M93.171,426.363l-42.76,42.76c-4.872,4.872-12.312,6.08-18.472,3l-15.088-7.544
		c-9.768-4.88-11.88-17.904-4.16-25.624l46.528-46.528c6.248-6.248,16.376-6.248,22.624,0l11.312,11.312
		C99.419,409.987,99.419,420.115,93.171,426.363z"/>
</g>
<g>
	<path style="fill:#132C47;" d="M281.691,233.035h-80c-4.416,0-8,3.576-8,8v40c0,26.472,21.528,48,48,48s48-21.528,48-48v-40
		C289.691,236.611,286.107,233.035,281.691,233.035z M273.691,281.035c0,17.648-14.352,32-32,32s-32-14.352-32-32v-32h64V281.035z"
		/>
	<path style="fill:#132C47;" d="M479.947,29.043l-7.544-15.088c-3.496-6.984-9.92-11.704-17.624-12.952
		c-7.72-1.256-15.296,1.2-20.816,6.72l-46.528,46.52c-9.36,9.36-9.36,24.584,0,33.944l2.736,2.736l-63.584,55.256
		c-7.456-33.864-18.856-66.984-34.408-98.488l-11.08-22.456c-7.36-14.928-22.272-24.2-38.92-24.2s-31.56,9.272-38.928,24.2
		l-11.08,22.456c-41.2,83.504-53.96,178.184-38.32,268.616l-63.608,73.192l-2.736-2.736c-9.056-9.056-24.872-9.072-33.944,0
		l-46.528,46.52c-5.52,5.52-7.968,13.12-6.712,20.824c1.248,7.704,5.976,14.128,12.96,17.616l15.088,7.544
		c3.416,1.712,7.088,2.536,10.728,2.536c6.224,0,12.352-2.424,16.968-7.04l42.76-42.76c4.536-4.528,7.032-10.56,7.032-16.968
		c0-5.072-1.616-9.872-4.52-13.912l56.48-64.992c7.456,33.776,18.848,66.808,34.352,98.24l11.08,22.456
		c7.368,14.936,22.28,24.208,38.928,24.208s31.56-9.272,38.92-24.2l11.088-22.456c41.432-83.976,54.064-179.24,38.016-270.144
		l71.616-62.232c4.152,2.968,9.008,4.512,13.904,4.512c6.144,0,12.288-2.336,16.968-7.016l42.76-42.76
		C482.763,49.435,484.571,38.299,479.947,29.043z M87.515,420.707l-42.76,42.76c-2.44,2.448-6.136,3.056-9.232,1.504l-15.08-7.544
		c-2.328-1.168-3.904-3.304-4.32-5.864c-0.416-2.568,0.4-5.104,2.24-6.944l46.528-46.52c1.56-1.56,3.608-2.336,5.656-2.336
		s4.104,0.776,5.664,2.336l11.32,11.32c1.504,1.504,2.336,3.504,2.336,5.648C89.859,417.187,89.027,419.195,87.515,420.707z
		 M293.555,97.035h-36.32l22.696-31.784L293.555,97.035z M242.179,17.035c10.504,0,19.928,5.848,24.576,15.28l0,0l6.96,14.112
		l-32.024,44.84l-31.448-44.032l7.36-14.92C222.251,22.891,231.675,17.035,242.179,17.035z M203.443,65.251l22.704,31.784h-36.32
		L203.443,65.251z M189.827,377.035h36.32l-22.696,31.784L189.827,377.035z M266.755,449.755
		c-4.648,9.432-14.064,15.28-24.576,15.28s-19.928-5.856-24.576-15.28l-9.728-19.712c0.104-0.128,0.232-0.224,0.328-0.36
		l33.488-46.88l33.488,46.88c0.28,0.392,0.624,0.72,0.96,1.056L266.755,449.755z M279.939,408.819l-22.704-31.784h36.32
		L279.939,408.819z M303.675,361.035h-61.984h-61.008c-23.832-80.784-22.888-167.64,2.584-248h58.424h59.4
		C326.563,193.395,327.507,280.251,303.675,361.035z M464.139,45.435l-42.76,42.76c-3.112,3.12-8.192,3.136-11.32,0l-11.312-11.312
		c-3.12-3.128-3.12-8.192,0-11.32l46.528-46.52c1.52-1.52,3.52-2.352,5.624-2.352c0.432,0,0.872,0.04,1.312,0.112
		c2.568,0.416,4.712,1.992,5.872,4.32l7.544,15.088C467.179,39.283,466.571,42.995,464.139,45.435z"/>
	<path style="fill:#132C47;" d="M201.691,217.035c4.416,0,8-3.576,8-8c0-14.872,10.24-27.288,24-30.864v6.864c0,4.424,3.584,8,8,8
		c4.416,0,8-3.576,8-8v-6.864c13.76,3.576,24,15.992,24,30.864c0,4.424,3.584,8,8,8s8-3.576,8-8c0-23.736-17.336-43.448-40-47.28
		v-8.72c0-4.424-3.584-8-8-8s-8,3.576-8,8v8.72c-22.664,3.824-40,23.536-40,47.28C193.691,213.459,197.275,217.035,201.691,217.035z
		"/>
	<path style="fill:#132C47;" d="M60.283,116.467c-4.472,4.096-10.592,9.72-10.592,20.568c0,4.424,3.584,8,8,8s8-3.576,8-8
		c0-3.672,1.56-5.248,5.408-8.776c4.464-4.096,10.592-9.72,10.592-20.576c0-10.848-6.12-16.472-10.592-20.568
		c-3.848-3.528-5.408-5.104-5.408-8.776c0-3.664,1.56-5.232,5.408-8.76c4.464-4.088,10.592-9.704,10.592-20.544c0-4.424-3.584-8-8-8
		s-8,3.576-8,8c0,3.656-1.56,5.224-5.4,8.752c-4.472,4.088-10.6,9.704-10.6,20.552s6.12,16.472,10.592,20.568
		c3.848,3.528,5.408,5.104,5.408,8.776C65.691,111.363,64.131,112.939,60.283,116.467z"/>
	<path style="fill:#132C47;" d="M57.691,193.035c4.416,0,8-3.576,8-8v-16c0-4.424-3.584-8-8-8s-8,3.576-8,8v16
		C49.691,189.459,53.275,193.035,57.691,193.035z"/>
	<path style="fill:#132C47;" d="M423.099,317.579c4.464-4.088,10.592-9.704,10.592-20.544c0-4.424-3.584-8-8-8s-8,3.576-8,8
		c0,3.656-1.56,5.224-5.4,8.752c-4.472,4.088-10.6,9.704-10.6,20.552s6.12,16.472,10.592,20.568c3.84,3.52,5.408,5.104,5.408,8.776
		c0,3.68-1.56,5.256-5.408,8.784c-4.472,4.096-10.592,9.72-10.592,20.568c0,4.424,3.584,8,8,8s8-3.576,8-8
		c0-3.672,1.56-5.248,5.408-8.776c4.464-4.096,10.592-9.72,10.592-20.576c0-10.848-6.12-16.472-10.592-20.568
		c-3.848-3.528-5.408-5.104-5.408-8.776C417.691,322.675,419.251,321.107,423.099,317.579z"/>
	<path style="fill:#132C47;" d="M409.691,409.035c-4.416,0-8,3.576-8,8v16c0,4.424,3.584,8,8,8s8-3.576,8-8v-16
		C417.691,412.611,414.107,409.035,409.691,409.035z"/>
</g>
</svg>