<?xml version="1.0" encoding="iso-8859-1"?>
<!-- Uploaded to: SVG Repo, www.svgrepo.com, Generator: SVG Repo Mixer Tools -->
<svg version="1.1" id="Layer_1" xmlns="http://www.w3.org/2000/svg" xmlns:xlink="http://www.w3.org/1999/xlink" 
	 viewBox="0 0 480 480" xml:space="preserve">
<polygon style="fill:#F9F2EE;" points="304.001,472 160.001,472 176.001,296 288.001,296 "/>
<g>
	<path style="fill:#FCF9F6;" d="M136.001,296l-35.56,156.456C98.169,462.464,105.777,472,116.049,472h43.952l16-176H136.001z"/>
	<path style="fill:#FCF9F6;" d="M328.001,296l35.56,156.456c2.272,10.008-5.336,19.544-15.608,19.544h-43.952l-16-176H328.001z"/>
</g>
<polygon style="fill:#F9F2EE;" points="304.001,72 160.001,72 176.001,248 288.001,248 "/>
<g>
	<polygon style="fill:#FCF9F6;" points="136.001,248 96.001,72 160.001,72 176.001,248 	"/>
	<polygon style="fill:#FCF9F6;" points="328.001,248 368.001,72 304.001,72 288.001,248 	"/>
</g>
<rect x="136.001" y="248" style="fill:#E67F33;" width="192" height="48"/>
<polygon style="fill:#F9F2EE;" points="288.001,32 176.001,32 160.001,72 304.001,72 "/>
<polygon style="fill:#E67F33;" points="40.001,72 96.001,72 112.001,144 "/>
<g>
	<path style="fill:#FCF9F6;" d="M160.001,72h-64l39.096-32.584c5.752-4.792,13-7.416,20.488-7.416h20.416L160.001,72z"/>
	<path style="fill:#FCF9F6;" d="M288.001,32h20.416c7.488,0,14.736,2.624,20.488,7.416L368.001,72h-64L288.001,32z"/>
</g>
<g>
	<path style="fill:#E67F33;" d="M256.001,32h-48v-8c0-8.84,7.16-16,16-16h16c8.84,0,16,7.16,16,16V32z"/>
	<polygon style="fill:#E67F33;" points="408.001,72 368.001,72 360.001,112 392.001,112 408.001,128 424.001,232 392.001,240 
		384.001,264 448.001,264 464.001,240 440.001,96 	"/>
</g>
<path style="fill:#AD5F26;" d="M64.001,204c0,19.88-10.744,36-24,36s-24-16.12-24-36s10.744-68,24-68S64.001,184.12,64.001,204z"/>
<g>
	<path style="fill:#132C47;" d="M301.681,266.32c-1.84-1.84-4.64-2.72-7.28-2.168c-0.48,0.088-0.96,0.24-1.44,0.488
		c-0.488,0.16-0.96,0.4-1.448,0.72c-0.4,0.32-0.8,0.64-1.192,0.96c-1.448,1.512-2.32,3.6-2.32,5.68c0,2.16,0.8,4.16,2.32,5.6
		c0.8,0.8,1.68,1.36,2.64,1.76s2,0.64,3.04,0.64c2.16,0,4.16-0.808,5.68-2.4c1.44-1.44,2.32-3.44,2.32-5.6
		c0-1.04-0.24-2.08-0.64-3.04C302.961,267.92,302.401,267.12,301.681,266.32z"/>
	<path style="fill:#132C47;" d="M444.801,89.6l-32-24c-1.384-1.04-3.064-1.6-4.8-1.6h-37.096l-36.888-30.736
		c-7.176-5.976-16.264-9.264-25.6-9.264h-44.416c0-13.232-10.768-24-24-24h-16c-13.232,0-24,10.768-24,24h-44.416
		c-9.336,0-18.432,3.288-25.608,9.264L93.097,64H40.001c-3.232,0-6.16,1.944-7.392,4.936c-1.24,2.992-0.552,6.432,1.736,8.72
		l70.832,70.832l22.824,100.424v46.176L92.649,450.68c-1.632,7.16,0.056,14.552,4.632,20.288c4.576,5.744,11.424,9.032,18.768,9.032
		h231.904c7.344,0,14.184-3.288,18.768-9.032c4.576-5.736,6.264-13.136,4.64-20.288l-35.36-155.592V248.92L365.297,120h23.392
		l11.808,11.808l14.496,94.2l-24.92,6.232c-2.656,0.656-4.792,2.632-5.648,5.224l-8,24c-0.824,2.44-0.408,5.128,1.096,7.208
		c1.496,2.096,3.912,3.328,6.48,3.328h64c2.672,0,5.168-1.336,6.656-3.56l16-24c1.128-1.688,1.568-3.752,1.232-5.752
		C471.889,238.688,446.449,90.832,444.801,89.6z M183.305,304h16.696v24c0,4.424,3.576,8,8,8s8-3.576,8-8v-24h32v24
		c0,4.424,3.576,8,8,8c4.424,0,8-3.576,8-8v-24h16.696l14.544,160h-126.48L183.305,304z M288.001,288h-112h-32v-32h32h112h32v32
		H288.001z M106.025,80h46.672l14.544,160h-24.856L106.025,80z M280.697,240h-16.696v-24c0-4.424-3.576-8-8-8c-4.424,0-8,3.576-8,8
		v24h-32v-24c0-4.424-3.576-8-8-8s-8,3.576-8,8v24h-16.696L168.761,80h126.472L280.697,240z M321.617,240h-24.856l14.544-160h46.672
		L321.617,240z M323.777,45.56L345.905,64h-36.488l-9.6-24h8.6C314.017,40,319.481,41.976,323.777,45.56z M282.585,40l9.6,24
		H171.817l9.6-24h26.584h48H282.585z M224.001,16h16c4.416,0,8,3.584,8,8h-32C216.001,19.584,219.585,16,224.001,16z M140.217,45.56
		c4.304-3.584,9.768-5.56,15.368-5.56h8.6l-9.6,24h-36.488L140.217,45.56z M59.313,80h30.272l8.648,38.912L59.313,80z
		 M109.793,460.992c-1.52-1.912-2.088-4.376-1.536-6.768L142.385,304h24.856l-14.544,160h-36.648
		C113.593,464,111.313,462.904,109.793,460.992z M354.209,460.992c-1.52,1.912-3.8,3.008-6.256,3.008h-36.648l-14.544-160h24.856
		l34.144,150.224C356.297,456.616,355.737,459.08,354.209,460.992z M443.721,256h-48.616l3.104-9.304l27.736-6.936
		c4.016-1,6.6-4.888,5.968-8.976l-16-104c-0.256-1.68-1.048-3.232-2.248-4.44l-16-16c-1.504-1.504-3.536-2.344-5.664-2.344h-22.24
		l4.8-24h30.784l27.296,20.48l22.952,137.72L443.721,256z"/>
	<path style="fill:#132C47;" d="M208.001,192c4.424,0,8-3.576,8-8v-8c0-4.424-3.576-8-8-8s-8,3.576-8,8v8
		C200.001,188.424,203.577,192,208.001,192z"/>
	<path style="fill:#132C47;" d="M256.001,192c4.424,0,8-3.576,8-8v-8c0-4.424-3.576-8-8-8c-4.424,0-8,3.576-8,8v8
		C248.001,188.424,251.577,192,256.001,192z"/>
	<path style="fill:#132C47;" d="M208.001,352c-4.424,0-8,3.576-8,8v8c0,4.424,3.576,8,8,8s8-3.576,8-8v-8
		C216.001,355.576,212.425,352,208.001,352z"/>
	<path style="fill:#132C47;" d="M256.001,352c-4.424,0-8,3.576-8,8v8c0,4.424,3.576,8,8,8c4.424,0,8-3.576,8-8v-8
		C264.001,355.576,260.425,352,256.001,352z"/>
	<path style="fill:#132C47;" d="M40.001,128c-23.664,0-32,62.584-32,76c0,24.672,14.056,44,32,44s32-19.328,32-44
		C72.001,190.584,63.665,128,40.001,128z M40.001,144.416c3.576,3.112,7.976,14.712,11.264,27.752c-0.8,1.104-1.432,2.344-1.592,3.8
		c-0.136,1.2-1.528,2.824-3.48,4.04c-1.856,1.16-4.168,2.072-6.616,3.04c-1.328,0.528-2.664,1.064-3.984,1.64
		c-3.96,1.752-7.464,3.912-10.568,6.336C27.633,172.064,34.721,149.008,40.001,144.416z M40.001,232
		c-4.008,0-8.216-3.288-11.328-8.76c-0.136-0.44-0.152-0.888-0.368-1.312c-1.768-3.44-1.304-8.464,1.152-12.504
		c3.112-5.12,8.568-8.312,12.6-10.096c1.128-0.496,2.28-0.952,3.432-1.408c2.848-1.136,6.088-2.416,9.168-4.336
		c0.216-0.136,0.384-0.312,0.592-0.456c0.464,3.904,0.752,7.616,0.752,10.872C56.001,220.496,47.569,232,40.001,232z"/>
</g>
</svg>