<?xml version="1.0" encoding="iso-8859-1"?>
<!-- Uploaded to: SVG Repo, www.svgrepo.com, Generator: SVG Repo Mixer Tools -->
<svg height="800px" width="800px" version="1.1" id="Layer_1" xmlns="http://www.w3.org/2000/svg" xmlns:xlink="http://www.w3.org/1999/xlink" 
	 viewBox="0 0 480 480" xml:space="preserve">
<path style="fill:#FFFCF7;" d="M283.248,328h-86.496c-16.352,0-30.072-12.328-31.816-28.592l-15.248-142.296
	c-3.04-28.368,19.2-53.112,47.728-53.112h85.168c28.536,0,50.768,24.744,47.728,53.112l-15.248,142.296
	C313.32,315.672,299.6,328,283.248,328z"/>
<path style="fill:#FCB641;" d="M296,240c0,30.928-25.072,56-56,56s-56-25.072-56-56s47.336-88,56-88
	C246.664,152,296,209.072,296,240z"/>
<path style="fill:#AD5F26;" d="M384,472H96v-16c0-8.84,7.16-16,16-16h256c8.84,0,16,7.16,16,16V472z"/>
<path style="fill:#E67F33;" d="M360,440H120l13.424-67.136c1.496-7.48,8.064-12.864,15.696-12.864h181.76
	c7.624,0,14.192,5.384,15.688,12.864L360,440z"/>
<circle style="fill:#FCB641;" cx="240" cy="400" r="32"/>
<path style="fill:#E67F33;" d="M312,104H168V88c0-8.84,7.16-16,16-16h112c8.84,0,16,7.16,16,16V104z"/>
<path style="fill:#EB995C;" d="M307.504,328H172.496c-7.344,0-13.744,5-15.52,12.12L152,360h176l-4.968-19.88
	C321.248,333,314.848,328,307.504,328z"/>
<path style="fill:#E67F33;" d="M272,264c0,17.672-14.328,32-32,32s-32-14.328-32-32s25.336-48,32-48C246,216,272,246.328,272,264z"
	/>
<g>
	<path style="fill:#132C47;" d="M312,392h-8c-4.416,0-8,3.576-8,8s3.584,8,8,8h8c4.416,0,8-3.576,8-8S316.416,392,312,392z"/>
	<path style="fill:#132C47;" d="M176,392h-8c-4.416,0-8,3.576-8,8s3.584,8,8,8h8c4.416,0,8-3.576,8-8S180.416,392,176,392z"/>
	<path style="fill:#132C47;" d="M384,376c-4.416,0-8,3.576-8,8h-19.04l-2.544-12.712c-2.008-10.032-10.2-17.544-20.096-18.984
		l-3.528-14.128c-2.104-8.384-8.464-14.728-16.424-17.104c4.664-5.792,7.8-12.904,8.648-20.808l15.248-142.288
		c1.688-15.784-3.424-31.6-14.024-43.4c-0.816-0.904-1.704-1.728-2.568-2.568H328c4.416,0,8-3.576,8-8s-3.584-8-8-8h-8v-8
		c0-10.416-6.712-19.216-16-22.528V32c0-13.232-10.768-24-24-24c0-4.424-3.584-8-8-8h-64c-4.416,0-8,3.576-8,8
		c-13.232,0-24,10.768-24,24v33.472c-9.288,3.312-16,12.112-16,22.528v8h-8c-4.416,0-8,3.576-8,8s3.584,8,8,8h6.336
		c-0.864,0.848-1.752,1.664-2.568,2.568c-10.608,11.8-15.72,27.616-14.024,43.4l15.248,142.288
		c0.848,7.904,3.984,15.016,8.648,20.808c-7.96,2.376-14.32,8.72-16.424,17.112l-3.528,14.128
		c-9.896,1.448-18.088,8.952-20.096,18.984L113.44,432H112c-13.232,0-24,10.768-24,24v16c0,4.424,3.584,8,8,8h288
		c4.416,0,8-3.576,8-8v-16c0-13.232-10.768-24-24-24h-1.44l-6.4-32H376c0,4.424,3.584,8,8,8s8-3.576,8-8v-16
		C392,379.576,388.416,376,384,376z M200,24c0,4.424,3.584,8,8,8h64c4.416,0,8-3.576,8-8c4.408,0,8,3.584,8,8v32h-96V32
		C192,27.584,195.592,24,200,24z M176,88c0-4.416,3.592-8,8-8h24c0,4.424,3.584,8,8,8s8-3.576,8-8h32c0,4.424,3.584,8,8,8
		s8-3.576,8-8h24c4.408,0,8,3.584,8,8v8h-21.416h-85.168H176V88z M167.664,125.264C175.24,116.832,186.088,112,197.416,112h85.168
		c11.336,0,22.176,4.832,29.752,13.264c7.576,8.432,11.232,19.728,10.024,31l-15.248,142.288C305.8,310.784,295.536,320,283.248,320
		H248v-16.552c31.52-3.96,56-30.872,56-63.448c0-31.4-49.312-96-64-96c-11.408,0-31.792,27.376-37.768,35.76
		C192.44,193.512,176,219.632,176,240c0,32.576,24.48,59.488,56,63.448V320h-35.248c-12.296,0-22.552-9.216-23.864-21.448
		L157.64,156.264C156.44,144.992,160.088,133.696,167.664,125.264z M239.856,224.832C246.824,230.488,264,252.152,264,264
		c0,10.416-6.712,19.216-16,22.528V272c0-4.424-3.584-8-8-8s-8,3.576-8,8v14.528c-9.288-3.312-16-12.112-16-22.528
		C216,252.256,232.552,230.424,239.856,224.832z M248,211.248V200c0-4.424-3.584-8-8-8s-8,3.576-8,8v11.128
		c-13.888,9.28-32,37.304-32,52.872c0,1.008,0.224,1.952,0.296,2.936C195.064,259.248,192,249.976,192,240
		c0-24.512,36-70.208,47.696-79.024C251.288,170.472,288,216.216,288,240c0,9.976-3.064,19.248-8.296,26.936
		c0.072-0.984,0.296-1.928,0.296-2.936C280,247.408,261.512,220.48,248,211.248z M164.728,342.064
		c0.896-3.568,4.088-6.064,7.768-6.064h24.264h86.496h24.264c3.672,0,6.872,2.496,7.76,6.056l2.472,9.944H162.248L164.728,342.064z
		 M240,424c-10.416,0-19.216-6.712-22.528-16H232c4.416,0,8-3.576,8-8s-3.584-8-8-8h-14.528c3.312-9.288,12.112-16,22.528-16
		c13.232,0,24,10.768,24,24S253.232,424,240,424z M141.272,374.432c0.744-3.728,4.048-6.432,7.848-6.432H152h64.248
		c-9.8,7.296-16.248,18.872-16.248,32s6.448,24.704,16.248,32H129.76L141.272,374.432z M376,456v8h-32c0-4.424-3.584-8-8-8
		s-8,3.576-8,8h-32c0-4.424-3.584-8-8-8s-8,3.576-8,8h-32c0-4.424-3.584-8-8-8s-8,3.576-8,8h-32c0-4.424-3.584-8-8-8s-8,3.576-8,8
		h-32c0-4.424-3.584-8-8-8s-8,3.576-8,8h-32v-8c0-4.416,3.592-8,8-8h8h240h8C372.408,448,376,451.584,376,456z M263.752,432
		c9.8-7.296,16.248-18.872,16.248-32s-6.448-24.704-16.248-32H328h2.88c3.8,0,7.104,2.704,7.848,6.432L350.24,432H263.752z"/>
	<path style="fill:#132C47;" d="M96,336c4.416,0,8-3.576,8-8s-3.584-8-8-8H80v-16c0-4.424-3.584-8-8-8s-8,3.576-8,8v16H48
		c-4.416,0-8,3.576-8,8s3.584,8,8,8h16v16c0,4.424,3.584,8,8,8s8-3.576,8-8v-16H96z"/>
	<path style="fill:#132C47;" d="M432,144h-16v-16c0-4.424-3.584-8-8-8s-8,3.576-8,8v16h-16c-4.416,0-8,3.576-8,8s3.584,8,8,8h16v16
		c0,4.424,3.584,8,8,8s8-3.576,8-8v-16h16c4.416,0,8-3.576,8-8S436.416,144,432,144z"/>
</g>
</svg>