<?xml version="1.0" encoding="iso-8859-1"?>
<!-- Uploaded to: SVG Repo, www.svgrepo.com, Generator: SVG Repo Mixer Tools -->
<svg version="1.1" id="Layer_1" xmlns="http://www.w3.org/2000/svg" xmlns:xlink="http://www.w3.org/1999/xlink" 
	 viewBox="0 0 482.894 482.894" xml:space="preserve">
<polygon style="fill:#AD5F26;" points="265.547,258.894 217.547,258.894 225.547,218.894 257.547,218.894 "/>
<path style="fill:#E67F33;" d="M72.859,154.886l-34.64-20l72-124.704l34.64,20c7.656,4.416,10.272,14.2,5.856,21.856l-56,96.992
	C90.299,156.686,80.507,159.31,72.859,154.886z"/>
<path style="fill:#FCB641;" d="M219.419,221.03l-124.704-72l56-96.992l117.776,68c11.48,6.624,15.416,21.304,8.784,32.784
	l-36,62.352C236.859,222.83,227.075,225.454,219.419,221.03z"/>
<path style="fill:#FDD38D;" d="M338.275,271.174l-96.992-56l40-69.28l96.992,56c7.656,4.416,10.272,14.2,5.856,21.856l-24,41.568
	C355.715,272.974,345.923,275.598,338.275,271.174z"/>
<path style="fill:#FCB641;" d="M400.803,288.806l-41.568-24l24-41.568l55.424,32l-16,27.712
	C418.243,290.598,408.459,293.222,400.803,288.806z"/>
<rect x="401.435" y="192.637" transform="matrix(-0.5 0.866 -0.866 -0.5 829.2326 -37.4776)" style="fill:#E67F33;" width="47.999" height="55.999"/>
<polygon style="fill:#FFFCF7;" points="462.267,214.342 413.771,186.342 422.843,154.63 473.547,194.894 "/>
<path id="SVGCleanerId_0" style="fill:#FFFCF7;" d="M42.219,127.958l-0.896-0.52C10.715,109.774,0.227,70.63,17.899,40.022l0,0
	C35.571,9.414,74.715-1.074,105.323,16.598l0.896,0.52L42.219,127.958z"/>
<g>
	<path id="SVGCleanerId_0_1_" style="fill:#FFFCF7;" d="M42.219,127.958l-0.896-0.52C10.715,109.774,0.227,70.63,17.899,40.022l0,0
		C35.571,9.414,74.715-1.074,105.323,16.598l0.896,0.52L42.219,127.958z"/>
</g>
<g>
	<path style="fill:#FFFCF7;" d="M311.419,219.63L311.419,219.63c-11.48-6.624-26.16-2.696-32.784,8.784l-4,6.928l41.568,24l4-6.928
		C326.827,240.934,322.899,226.254,311.419,219.63z"/>
	<path style="fill:#FFFCF7;" d="M157.547,147.182L157.547,147.182c-11.48-6.624-26.16-2.696-32.784,8.784l-4.008,6.928l41.568,24
		l4-6.928C172.955,168.486,169.019,153.806,157.547,147.182z"/>
</g>
<g>
	<path style="fill:#132C47;" d="M478.523,188.63l-50.704-40.264c-2.104-1.664-4.864-2.168-7.424-1.352
		c-2.544,0.816-4.512,2.848-5.248,5.416l-8.8,30.784l-13.808,23.912c-1.904-4.936-5.344-9.312-10.264-12.16l-93.92-54.224
		c-0.056-11.016-5.656-21.728-15.864-27.632L160.379,48.382c0.64-3.464,0.6-7.048-0.344-10.552
		c-1.656-6.184-5.632-11.368-11.176-14.568l-34.64-20c-3.824-2.208-8.72-0.904-10.928,2.928l-0.168,0.296
		C87.963-0.442,71.019-1.89,54.691,2.478c-18.584,4.968-34.104,16.888-43.72,33.544c-18.664,32.336-9.304,73.28,20.496,94.568
		l-0.176,0.304c-1.064,1.832-1.344,4.024-0.8,6.072s1.888,3.8,3.728,4.856l34.632,20c3.704,2.136,7.808,3.224,11.968,3.224
		c2.088,0,4.176-0.272,6.248-0.832c3.504-0.936,6.624-2.688,9.312-4.976l119.04,68.728c0,0,0,0,0.008,0
		c0.04,0.024,0.088,0.032,0.136,0.056l-5.864,29.304c-0.472,2.352,0.144,4.792,1.656,6.64c1.528,1.848,3.792,2.928,6.192,2.928
		h10.84l-103.704,200h-19.136c-4.424,0-8,3.576-8,8s3.576,8,8,8h24c2.984,0,5.728-1.664,7.104-4.32l96.896-186.872v135.192h-8
		c-4.424,0-8,3.576-8,8s3.576,8,8,8h32c4.424,0,8-3.576,8-8s-3.576-8-8-8h-8V291.702l96.896,186.872
		c1.376,2.656,4.12,4.32,7.104,4.32h24c4.424,0,8-3.576,8-8s-3.576-8-8-8h-19.136l-103.704-200h10.84c2.4,0,4.664-1.08,6.184-2.928
		c1.512-1.848,2.128-4.288,1.656-6.64l-3.064-15.328c0.12,0.08,0.184,0.2,0.304,0.272l41.568,24c1.008,0.576,2.12,0.864,3.256,0.976
		l18.816,10.864c3.776,2.176,7.888,3.208,11.96,3.208c5.648,0,11.112-2.136,15.488-5.84l35.072,20.256
		c3.704,2.136,7.808,3.224,11.968,3.224c2.088,0,4.176-0.272,6.248-0.832c6.184-1.656,11.368-5.624,14.576-11.176l16-27.712
		c0.008-0.016,0.008-0.032,0.016-0.04l23.576-40.824c0,0,0,0,0.008-0.008l11.28-19.456
		C482.459,195.47,481.635,191.094,478.523,188.63z M463.155,196.862l-3.808,6.56l-36.168-20.888l4.064-14.2L463.155,196.862z
		 M24.827,44.022c7.48-12.952,19.552-22.216,34-26.096c4.824-1.288,9.712-1.928,14.576-1.928c7.416,0,14.768,1.496,21.672,4.416
		l-24.688,42.76l-16.4-10.936c-3.696-2.448-8.648-1.464-11.096,2.216c-2.456,3.68-1.464,8.64,2.216,11.096l17.256,11.504
		l-22.864,39.608C17.315,99.87,10.571,68.71,24.827,44.022z M82.931,148.758c-2.048,0.544-4.208,0.28-6.064-0.808
		c-0.008,0-0.008,0-0.008,0l-27.704-16l29.352-50.832c0.64-0.504,1.224-1.08,1.704-1.792c0.672-1.008,1.032-2.12,1.208-3.24
		l31.744-54.976l27.712,16c1.848,1.064,3.168,2.792,3.728,4.848s0.264,4.216-0.808,6.072l-56,97
		C86.715,146.886,84.995,148.206,82.931,148.758z M131.691,159.966c2.136-3.704,5.584-6.352,9.712-7.456
		c4.152-1.104,8.44-0.536,12.144,1.6s6.352,5.584,7.464,9.712c1.104,4.136,0.536,8.44-1.6,12.144L131.691,159.966z M172.747,184.846
		l0.512-0.888c4.272-7.408,5.408-16.024,3.192-24.28s-7.504-15.16-14.912-19.432c-7.4-4.264-16.016-5.408-24.28-3.192
		c-8.256,2.208-15.16,7.504-19.432,14.904l-0.512,0.88l-11.68-6.744l48-83.136l40.672,23.48l-16.392,28.392
		c-2.208,3.832-0.896,8.72,2.928,10.928c1.256,0.728,2.632,1.072,3.992,1.072c2.768,0,5.456-1.44,6.936-4l16.392-28.392l13.856,8
		l-8.392,14.544c-2.208,3.832-0.896,8.72,2.928,10.928c1.256,0.728,2.632,1.072,3.992,1.072c2.768,0,5.456-1.44,6.936-4
		l8.392-14.536l28.608,16.52c7.64,4.416,10.272,14.216,5.864,21.856l-35.832,62.072h-8.968c-1.8,0-3.456,0.64-4.808,1.664
		L172.747,184.846z M227.307,250.894l4.048-20.24c3.384-0.568,6.568-1.824,9.432-3.76h4.792l6.12,3.536l4.088,20.464H227.307z
		 M313.603,247.694l-27.576-15.92c2.152-3.344,5.384-5.776,9.248-6.808c4.152-1.112,8.44-0.544,12.144,1.6
		c3.704,2.136,6.352,5.584,7.464,9.712C315.907,240.142,315.419,244.15,313.603,247.694z M348.347,265.054
		c-2.048,0.536-4.216,0.28-6.064-0.808c-0.008,0-0.008,0-0.008,0l-14.816-8.552c3.952-7.248,5.008-15.56,2.872-23.56
		c-2.208-8.256-7.504-15.16-14.912-19.432c-7.4-4.264-16.016-5.416-24.28-3.192c-8,2.144-14.672,7.224-18.968,14.264l-6.2-3.584
		l-0.576-2.864c-0.752-3.736-4.032-6.432-7.848-6.432h-4.552l31.216-54.072l40.664,23.48l-4.392,7.608
		c-2.208,3.832-0.896,8.72,2.928,10.928c1.256,0.728,2.632,1.072,3.992,1.072c2.768,0,5.456-1.432,6.936-4l4.392-7.6l35.528,20.52
		c3.04,1.752,4.4,5.184,3.768,8.448c-0.648,0.568-1.272,1.176-1.728,1.968l-24,41.56c-0.456,0.784-0.688,1.648-0.856,2.528
		C350.547,264.102,349.523,264.734,348.347,265.054z M415.731,278.942c-2.2,3.832-7.136,5.128-10.92,2.928c-0.008,0-0.008,0-0.008,0
		l-33.744-19.48l15.608-27.032l40.672,23.488L415.731,278.942z M435.731,244.302l-34.632-19.992l15.608-27.032l17.32,10l17.32,10
		L435.731,244.302z"/>
	<path style="fill:#132C47;" d="M97.547,330.894c4.424,0,8-3.576,8-8s-3.576-8-8-8h-16v-16c0-4.424-3.576-8-8-8s-8,3.576-8,8v16h-16
		c-4.424,0-8,3.576-8,8s3.576,8,8,8h16v16c0,4.424,3.576,8,8,8s8-3.576,8-8v-16H97.547z"/>
	<path style="fill:#132C47;" d="M337.547,58.894h16v16c0,4.424,3.576,8,8,8s8-3.576,8-8v-16h16c4.424,0,8-3.576,8-8s-3.576-8-8-8
		h-16v-16c0-4.424-3.576-8-8-8s-8,3.576-8,8v16h-16c-4.424,0-8,3.576-8,8S333.123,58.894,337.547,58.894z"/>
</g>
</svg>