<?xml version="1.0" encoding="iso-8859-1"?>
<!-- Uploaded to: SVG Repo, www.svgrepo.com, Generator: SVG Repo Mixer Tools -->
<svg height="800px" width="800px" version="1.1" id="Layer_1" xmlns="http://www.w3.org/2000/svg" xmlns:xlink="http://www.w3.org/1999/xlink" 
	 viewBox="0 0 484.098 484.098" xml:space="preserve">
<polygon style="fill:#FCB641;" points="96.003,134.049 56.003,158.049 8.003,422.049 40.003,438.049 "/>
<polygon style="fill:#FDD38D;" points="440.003,438.049 40.003,438.049 96.003,134.049 240.003,70.049 384.003,134.049 "/>
<path style="fill:#FEE5BB;" d="M349.731,438.049H130.275c-9.68,0-17.136-8.52-15.856-18.112l27.736-208
	c1.056-7.952,7.84-13.888,15.856-13.888h163.984c8.016,0,14.8,5.936,15.856,13.888l27.736,208
	C366.867,429.529,359.403,438.049,349.731,438.049z"/>
<path style="fill:#E67F33;" d="M320.003,198.049h-160c-8.84,0-16-7.16-16-16l0,0c0-8.84,7.16-16,16-16h160c8.84,0,16,7.16,16,16l0,0
	C336.003,190.889,328.843,198.049,320.003,198.049z"/>
<path style="fill:#EB995C;" d="M256.003,198.049h-32v-48c0-8.84,7.16-16,16-16l0,0c8.84,0,16,7.16,16,16V198.049z"/>
<polygon style="fill:#FCB641;" points="384.003,134.049 424.003,158.049 476.099,422.049 440.003,438.049 "/>
<path style="fill:#FEFAF8;" d="M240.003,302.049L240.003,302.049c-8.84,0-16-7.16-16-16v-32h32v32
	C256.003,294.889,248.843,302.049,240.003,302.049z"/>
<path style="fill:#E67F33;" d="M239.339,220.049L239.339,220.049c-8.84,0-16,7.16-16,16v16h32v-16
	C255.339,227.209,248.171,220.049,239.339,220.049z"/>
<g>
	<path style="fill:#132C47;" d="M483.947,420.505l-52.096-264c-0.44-2.216-1.8-4.152-3.736-5.312l-40-24
		c-0.12-0.072-0.264-0.096-0.384-0.16c-0.168-0.088-0.304-0.208-0.48-0.288l-130.72-58.096l11.904-7.936
		c3.68-2.448,4.672-7.416,2.216-11.096s-7.416-4.68-11.096-2.216l-11.552,7.704v-9.056c0-4.416-3.576-8-8-8s-8,3.584-8,8v9.056
		l-11.56-7.712c-3.696-2.464-8.648-1.456-11.096,2.216c-2.456,3.672-1.464,8.648,2.216,11.096l11.904,7.936l-130.72,58.096
		c-0.176,0.08-0.312,0.2-0.48,0.288c-0.128,0.064-0.264,0.088-0.384,0.16l-40,24c-1.976,1.184-3.344,3.168-3.752,5.432l-48,264
		c-0.64,3.496,1.112,7,4.288,8.584l32,16c0.032,0.016,0.072,0.008,0.104,0.024c1.08,0.528,2.256,0.824,3.48,0.824h400
		c1.104,0,2.208-0.224,3.24-0.688l36.096-16C482.755,427.849,484.667,424.169,483.947,420.505z M63.227,163.049l21.696-13.016
		l-16.344,88.752l-34.512,187.36l-17.112-8.56L63.227,163.049z M130.275,430.049c-2.336,0-4.48-0.968-6.024-2.736
		c-1.536-1.76-2.216-4-1.904-6.32l27.736-208c0.528-3.952,3.936-6.944,7.928-6.944h1.992h64h8v9.472
		c-9.288,3.312-16,12.112-16,22.528v8h-8c-4.424,0-8,3.584-8,8c0,4.416,3.576,8,8,8h8v24c0,13.232,10.768,24,24,24s24-10.768,24-24
		v-24h8c4.424,0,8-3.584,8-8c0-4.416-3.576-8-8-8h-8v-8c0-10.416-6.712-19.216-16-22.528v-9.472h8h64h1.992
		c3.992,0,7.4,2.992,7.928,6.944l27.736,208c0.312,2.32-0.368,4.56-1.904,6.32c-1.552,1.768-3.688,2.736-6.024,2.736H130.275z
		 M248.003,158.049h-16v-8c0-4.408,3.584-8,8-8c4.416,0,8,3.592,8,8V158.049z M248.003,174.049v16h-16v-16H248.003z
		 M320.003,190.049h-56v-16h56c4.416,0,8,3.592,8,8S324.419,190.049,320.003,190.049z M232.003,262.049h16v24c0,4.408-3.584,8-8,8
		s-8-3.592-8-8V262.049z M232.003,246.049v-8c0-4.408,3.584-8,8-8c4.416,0,8,3.592,8,8v8H232.003z M216.003,190.049h-56
		c-4.416,0-8-3.592-8-8s3.584-8,8-8h56V190.049z M372.259,430.049c1.264-3.552,1.768-7.352,1.264-11.168l-27.736-208
		c-0.736-5.488-3.368-10.296-7.104-13.936c3.272-4.112,5.32-9.24,5.32-14.896c0-13.232-10.768-24-24-24h-56v-8
		c0-13.232-10.768-24-24-24s-24,10.768-24,24v8h-56c-13.232,0-24,10.768-24,24c0,5.656,2.048,10.784,5.328,14.888
		c-3.744,3.648-6.376,8.448-7.104,13.936l-27.736,208c-0.512,3.816,0,7.624,1.264,11.168H49.611l27.672-150.208l25.824-140.184
		l136.896-60.848l136.896,60.848l25.824,140.192l27.672,150.208H372.259z M446.035,426.625l-50.952-276.6l21.76,13.056
		l50.168,254.248L446.035,426.625z"/>
	<path style="fill:#132C47;" d="M240.003,326.049c-4.424,0-8,3.584-8,8v16c0,4.416,3.576,8,8,8c4.424,0,8-3.584,8-8v-16
		C248.003,329.633,244.427,326.049,240.003,326.049z"/>
	<path style="fill:#132C47;" d="M186.347,296.393l-8,8c-3.128,3.128-3.128,8.184,0,11.312c1.56,1.56,3.608,2.344,5.656,2.344
		s4.096-0.784,5.656-2.344l8-8c3.128-3.128,3.128-8.184,0-11.312S189.475,293.265,186.347,296.393z"/>
	<path style="fill:#132C47;" d="M293.659,296.393c-3.128-3.128-8.184-3.128-11.312,0s-3.128,8.184,0,11.312l8,8
		c1.56,1.56,3.608,2.344,5.656,2.344s4.096-0.784,5.656-2.344c3.128-3.128,3.128-8.184,0-11.312L293.659,296.393z"/>
</g>
</svg>